M48
;Layer_Color=9474304
;FILE_FORMAT=4:2
METRIC,LZ
;TYPE=PLATED
T1F00S00C0.71
T2F00S00C1.00
T3F00S00C1.10
T4F00S00C3.10
%
T01
X0031Y002325
X00308Y00362
X00287Y00389
X00285Y00537
X002373Y005505
Y005955
X002575Y00648
X00255Y00681
X00146Y00763
Y00502
X00172Y00501
T02
X00335Y001925
Y002175
Y003225
Y003475
Y0045
Y00475
Y005825
Y006075
X0028Y00785
X00255
X0023
X00205
X001Y007258
Y007005
Y006753
Y0065
Y006248
Y005995
Y005743
Y00549
Y005238
Y004985
T03
X000776Y000588
Y000842
Y001096
Y00135
Y001604
Y001858
Y002112
Y002366
Y00262
Y002874
Y003128
Y003382
Y003636
Y00389
X0023
Y003636
Y003382
Y003128
Y002874
Y00262
Y002366
Y002112
Y001858
Y001604
Y00135
Y001096
Y000842
Y000588
Y004144
X000776
T04
X00025Y00025
X00335
Y00775
X00025
M30
