G04*
G04 #@! TF.GenerationSoftware,Altium Limited,Altium Designer,18.0.9 (584)*
G04*
G04 Layer_Physical_Order=2*
G04 Layer_Color=16711680*
%FSLAX42Y42*%
%MOMM*%
G71*
G01*
G75*
%ADD12C,0.40*%
%ADD20C,2.00*%
%ADD21C,1.80*%
%ADD22R,1.80X1.80*%
%ADD23C,1.27*%
%ADD24C,4.50*%
G36*
X3270Y7987D02*
X3254Y7982D01*
X3210Y7959D01*
X3172Y7928D01*
X3141Y7890D01*
X3118Y7846D01*
X3103Y7799D01*
X3098Y7750D01*
X3103Y7701D01*
X3118Y7654D01*
X3141Y7610D01*
X3172Y7572D01*
X3210Y7541D01*
X3254Y7518D01*
X3301Y7503D01*
X3350Y7498D01*
X3399Y7503D01*
X3446Y7518D01*
X3490Y7541D01*
X3528Y7572D01*
X3559Y7610D01*
X3582Y7654D01*
X3587Y7670D01*
X3600Y7668D01*
Y332D01*
X3587Y330D01*
X3582Y346D01*
X3559Y390D01*
X3528Y428D01*
X3490Y459D01*
X3446Y482D01*
X3399Y497D01*
X3350Y502D01*
X3301Y497D01*
X3254Y482D01*
X3210Y459D01*
X3172Y428D01*
X3141Y390D01*
X3118Y346D01*
X3103Y299D01*
X3098Y250D01*
X3103Y201D01*
X3118Y154D01*
X3141Y110D01*
X3172Y72D01*
X3210Y41D01*
X3254Y18D01*
X3270Y13D01*
X3268Y0D01*
X332D01*
X330Y13D01*
X346Y18D01*
X390Y41D01*
X428Y72D01*
X459Y110D01*
X482Y154D01*
X497Y201D01*
X502Y250D01*
X497Y299D01*
X482Y346D01*
X459Y390D01*
X428Y428D01*
X390Y459D01*
X346Y482D01*
X299Y497D01*
X250Y502D01*
X201Y497D01*
X154Y482D01*
X110Y459D01*
X72Y428D01*
X41Y390D01*
X18Y346D01*
X13Y330D01*
X0Y332D01*
Y7668D01*
X13Y7670D01*
X18Y7654D01*
X41Y7610D01*
X72Y7572D01*
X110Y7541D01*
X154Y7518D01*
X201Y7503D01*
X250Y7498D01*
X299Y7503D01*
X346Y7518D01*
X390Y7541D01*
X428Y7572D01*
X459Y7610D01*
X482Y7654D01*
X497Y7701D01*
X502Y7750D01*
X497Y7799D01*
X482Y7846D01*
X459Y7890D01*
X428Y7928D01*
X390Y7959D01*
X346Y7982D01*
X330Y7987D01*
X332Y8000D01*
X3268D01*
X3270Y7987D01*
D02*
G37*
%LPC*%
G36*
X2800Y7976D02*
X2767Y7972D01*
X2737Y7960D01*
X2711Y7939D01*
X2690Y7913D01*
X2682Y7893D01*
X2668D01*
X2660Y7913D01*
X2639Y7939D01*
X2613Y7960D01*
X2583Y7972D01*
X2550Y7976D01*
X2517Y7972D01*
X2487Y7960D01*
X2461Y7939D01*
X2440Y7913D01*
X2432Y7893D01*
X2418D01*
X2410Y7913D01*
X2389Y7939D01*
X2363Y7960D01*
X2333Y7972D01*
X2300Y7976D01*
X2267Y7972D01*
X2237Y7960D01*
X2211Y7939D01*
X2190Y7913D01*
X2182Y7893D01*
X2168D01*
X2160Y7913D01*
X2139Y7939D01*
X2113Y7960D01*
X2083Y7972D01*
X2050Y7976D01*
X2017Y7972D01*
X1987Y7960D01*
X1961Y7939D01*
X1940Y7913D01*
X1928Y7883D01*
X1924Y7850D01*
X1928Y7817D01*
X1940Y7787D01*
X1961Y7761D01*
X1987Y7740D01*
X2017Y7728D01*
X2050Y7724D01*
X2083Y7728D01*
X2103Y7736D01*
X2110Y7725D01*
X2061Y7676D01*
X1537D01*
X1523Y7693D01*
X1505Y7708D01*
X1483Y7717D01*
X1460Y7720D01*
X1437Y7717D01*
X1415Y7708D01*
X1397Y7693D01*
X1382Y7675D01*
X1373Y7653D01*
X1370Y7630D01*
X1373Y7607D01*
X1382Y7585D01*
X1387Y7579D01*
X1381Y7566D01*
X890D01*
X872Y7563D01*
X857Y7553D01*
X857Y7553D01*
X697Y7393D01*
X687Y7378D01*
X684Y7360D01*
X684Y7360D01*
Y6770D01*
X684Y6770D01*
X687Y6752D01*
X697Y6737D01*
X885Y6550D01*
X878Y6533D01*
X874Y6500D01*
X878Y6467D01*
X890Y6437D01*
X911Y6411D01*
X937Y6390D01*
X961Y6381D01*
Y6367D01*
X937Y6357D01*
X911Y6337D01*
X890Y6311D01*
X878Y6280D01*
X874Y6248D01*
X878Y6215D01*
X890Y6184D01*
X911Y6158D01*
X937Y6138D01*
X961Y6128D01*
Y6114D01*
X937Y6105D01*
X911Y6084D01*
X890Y6058D01*
X878Y6028D01*
X874Y5995D01*
X878Y5962D01*
X890Y5932D01*
X911Y5906D01*
X937Y5885D01*
X961Y5876D01*
Y5862D01*
X937Y5852D01*
X911Y5832D01*
X890Y5806D01*
X878Y5775D01*
X874Y5743D01*
X878Y5710D01*
X890Y5679D01*
X911Y5653D01*
X937Y5633D01*
X961Y5623D01*
Y5609D01*
X937Y5600D01*
X911Y5579D01*
X890Y5553D01*
X878Y5523D01*
X874Y5490D01*
X878Y5457D01*
X890Y5427D01*
X911Y5401D01*
X937Y5380D01*
X961Y5371D01*
Y5357D01*
X937Y5347D01*
X911Y5327D01*
X890Y5301D01*
X878Y5270D01*
X874Y5238D01*
X878Y5205D01*
X890Y5174D01*
X911Y5148D01*
X937Y5128D01*
X961Y5118D01*
Y5104D01*
X937Y5095D01*
X911Y5074D01*
X890Y5048D01*
X878Y5018D01*
X874Y4985D01*
X878Y4952D01*
X890Y4922D01*
X911Y4896D01*
X937Y4875D01*
X967Y4863D01*
X1000Y4859D01*
X1033Y4863D01*
X1063Y4875D01*
X1089Y4896D01*
X1110Y4922D01*
X1122Y4952D01*
X1126Y4985D01*
X1122Y5018D01*
X1110Y5048D01*
X1089Y5074D01*
X1063Y5095D01*
X1039Y5104D01*
Y5118D01*
X1063Y5128D01*
X1089Y5148D01*
X1110Y5174D01*
X1122Y5205D01*
X1126Y5238D01*
X1122Y5270D01*
X1112Y5294D01*
X1123Y5302D01*
X1376Y5049D01*
X1373Y5043D01*
X1370Y5020D01*
X1373Y4997D01*
X1382Y4975D01*
X1397Y4957D01*
X1415Y4942D01*
X1419Y4941D01*
Y2692D01*
X1419Y2692D01*
X1423Y2675D01*
X1433Y2660D01*
X2193Y1900D01*
X2188Y1888D01*
X2184Y1858D01*
X2188Y1828D01*
X2199Y1800D01*
X2218Y1776D01*
X2242Y1757D01*
X2270Y1746D01*
X2300Y1742D01*
X2330Y1746D01*
X2358Y1757D01*
X2382Y1776D01*
X2401Y1800D01*
X2412Y1828D01*
X2416Y1858D01*
X2412Y1888D01*
X2401Y1916D01*
X2382Y1940D01*
X2358Y1959D01*
X2330Y1970D01*
X2300Y1974D01*
X2270Y1970D01*
X2258Y1965D01*
X1512Y2712D01*
Y4948D01*
X1523Y4957D01*
X1538Y4975D01*
X1547Y4997D01*
X1550Y5020D01*
X1547Y5043D01*
X1538Y5065D01*
X1523Y5083D01*
X1505Y5098D01*
X1483Y5107D01*
X1460Y5110D01*
X1447Y5108D01*
X1115Y5440D01*
X1122Y5457D01*
X1126Y5490D01*
X1122Y5523D01*
X1112Y5547D01*
X1123Y5554D01*
X1636Y5041D01*
X1633Y5033D01*
X1630Y5010D01*
X1633Y4987D01*
X1642Y4965D01*
X1657Y4947D01*
X1675Y4932D01*
X1681Y4930D01*
Y2685D01*
X1681Y2685D01*
X1684Y2667D01*
X1694Y2652D01*
X2193Y2154D01*
X2188Y2142D01*
X2184Y2112D01*
X2188Y2082D01*
X2199Y2054D01*
X2218Y2030D01*
X2242Y2011D01*
X2270Y2000D01*
X2300Y1996D01*
X2330Y2000D01*
X2358Y2011D01*
X2382Y2030D01*
X2401Y2054D01*
X2412Y2082D01*
X2416Y2112D01*
X2412Y2142D01*
X2401Y2170D01*
X2382Y2194D01*
X2358Y2213D01*
X2330Y2224D01*
X2300Y2228D01*
X2270Y2224D01*
X2258Y2219D01*
X1773Y2704D01*
Y4939D01*
X1783Y4947D01*
X1798Y4965D01*
X1807Y4987D01*
X1810Y5010D01*
X1807Y5033D01*
X1798Y5055D01*
X1783Y5073D01*
X1765Y5088D01*
X1743Y5097D01*
X1720Y5100D01*
X1710Y5098D01*
X1115Y5693D01*
X1122Y5710D01*
X1126Y5743D01*
X1122Y5775D01*
X1110Y5806D01*
X1089Y5832D01*
X1063Y5852D01*
X1039Y5862D01*
Y5876D01*
X1063Y5885D01*
X1089Y5906D01*
X1110Y5932D01*
X1122Y5962D01*
X1126Y5995D01*
X1122Y6028D01*
X1110Y6058D01*
X1089Y6084D01*
X1063Y6105D01*
X1039Y6114D01*
Y6128D01*
X1063Y6138D01*
X1089Y6158D01*
X1110Y6184D01*
X1122Y6215D01*
X1126Y6248D01*
X1122Y6280D01*
X1110Y6311D01*
X1089Y6337D01*
X1063Y6357D01*
X1039Y6367D01*
Y6381D01*
X1063Y6390D01*
X1089Y6411D01*
X1110Y6437D01*
X1122Y6467D01*
X1126Y6500D01*
X1122Y6533D01*
X1112Y6557D01*
X1123Y6564D01*
X1274Y6413D01*
Y6120D01*
X1274Y6120D01*
X1277Y6102D01*
X1287Y6087D01*
X2037Y5337D01*
X2037Y5337D01*
X2052Y5327D01*
X2070Y5324D01*
X2070Y5324D01*
X2773D01*
X2787Y5307D01*
X2805Y5292D01*
X2827Y5283D01*
X2850Y5280D01*
X2873Y5283D01*
X2895Y5292D01*
X2913Y5307D01*
X2928Y5325D01*
X2937Y5347D01*
X2940Y5370D01*
X2937Y5393D01*
X2928Y5415D01*
X2913Y5433D01*
X2895Y5448D01*
X2873Y5457D01*
X2850Y5460D01*
X2827Y5457D01*
X2805Y5448D01*
X2787Y5433D01*
X2773Y5416D01*
X2423D01*
X2421Y5420D01*
X2419Y5429D01*
X2436Y5442D01*
X2450Y5460D01*
X2459Y5482D01*
X2462Y5505D01*
X2459Y5528D01*
X2450Y5550D01*
X2436Y5568D01*
X2419Y5582D01*
Y5878D01*
X2436Y5892D01*
X2450Y5910D01*
X2459Y5932D01*
X2462Y5955D01*
X2459Y5978D01*
X2450Y6000D01*
X2436Y6018D01*
X2417Y6033D01*
X2396Y6042D01*
X2373Y6045D01*
X2349Y6042D01*
X2328Y6033D01*
X2309Y6018D01*
X2295Y6000D01*
X2286Y5978D01*
X2283Y5955D01*
X2286Y5932D01*
X2295Y5910D01*
X2309Y5892D01*
X2326Y5878D01*
Y5582D01*
X2309Y5568D01*
X2295Y5550D01*
X2286Y5528D01*
X2283Y5505D01*
X2286Y5482D01*
X2295Y5460D01*
X2309Y5442D01*
X2326Y5429D01*
X2324Y5420D01*
X2322Y5416D01*
X2089D01*
X1366Y6139D01*
Y6432D01*
X1366Y6433D01*
X1363Y6450D01*
X1353Y6465D01*
X1115Y6703D01*
X1122Y6720D01*
X1126Y6753D01*
X1122Y6785D01*
X1110Y6816D01*
X1089Y6842D01*
X1063Y6862D01*
X1039Y6872D01*
Y6886D01*
X1063Y6895D01*
X1089Y6916D01*
X1110Y6942D01*
X1117Y6959D01*
X1632D01*
X3451Y5140D01*
Y4843D01*
X3444Y4841D01*
X3439Y4840D01*
X3413Y4860D01*
X3383Y4872D01*
X3350Y4876D01*
X3317Y4872D01*
X3287Y4860D01*
X3261Y4839D01*
X3240Y4813D01*
X3228Y4783D01*
X3224Y4750D01*
X3228Y4717D01*
X3240Y4687D01*
X3261Y4661D01*
X3287Y4640D01*
X3308Y4632D01*
Y4618D01*
X3287Y4610D01*
X3261Y4589D01*
X3240Y4563D01*
X3228Y4533D01*
X3224Y4500D01*
X3228Y4467D01*
X3240Y4437D01*
X3261Y4411D01*
X3287Y4390D01*
X3317Y4378D01*
X3350Y4374D01*
X3383Y4378D01*
X3413Y4390D01*
X3439Y4410D01*
X3444Y4409D01*
X3451Y4407D01*
Y3568D01*
X3444Y3566D01*
X3439Y3565D01*
X3413Y3585D01*
X3383Y3597D01*
X3350Y3601D01*
X3317Y3597D01*
X3287Y3585D01*
X3261Y3564D01*
X3240Y3538D01*
X3228Y3508D01*
X3224Y3475D01*
X3228Y3442D01*
X3236Y3422D01*
X3225Y3415D01*
X3126Y3514D01*
Y3543D01*
X3143Y3557D01*
X3158Y3575D01*
X3167Y3597D01*
X3170Y3620D01*
X3167Y3643D01*
X3158Y3665D01*
X3143Y3683D01*
X3125Y3698D01*
X3103Y3707D01*
X3080Y3710D01*
X3057Y3707D01*
X3035Y3698D01*
X3017Y3683D01*
X3002Y3665D01*
X2993Y3643D01*
X2990Y3620D01*
X2993Y3597D01*
X3002Y3575D01*
X3017Y3557D01*
X3034Y3543D01*
Y3495D01*
X3034Y3495D01*
X3037Y3477D01*
X3047Y3462D01*
X3235Y3275D01*
X3228Y3258D01*
X3224Y3225D01*
X3228Y3192D01*
X3240Y3162D01*
X3261Y3136D01*
X3287Y3115D01*
X3317Y3103D01*
X3350Y3099D01*
X3383Y3103D01*
X3413Y3115D01*
X3439Y3136D01*
X3460Y3162D01*
X3472Y3192D01*
X3476Y3225D01*
X3472Y3258D01*
X3465Y3275D01*
X3530Y3340D01*
X3530Y3340D01*
X3540Y3355D01*
X3544Y3373D01*
Y5159D01*
X3544Y5159D01*
X3540Y5176D01*
X3530Y5191D01*
X3530Y5191D01*
X1684Y7038D01*
X1669Y7048D01*
X1651Y7051D01*
X1651Y7051D01*
X1117D01*
X1110Y7068D01*
X1089Y7094D01*
X1063Y7115D01*
X1039Y7124D01*
Y7138D01*
X1063Y7148D01*
X1089Y7168D01*
X1110Y7194D01*
X1122Y7225D01*
X1126Y7258D01*
X1122Y7290D01*
X1110Y7321D01*
X1089Y7347D01*
X1063Y7367D01*
X1033Y7380D01*
X1000Y7384D01*
X967Y7380D01*
X937Y7367D01*
X911Y7347D01*
X890Y7321D01*
X878Y7290D01*
X874Y7258D01*
X878Y7225D01*
X890Y7194D01*
X911Y7168D01*
X937Y7148D01*
X961Y7138D01*
Y7124D01*
X937Y7115D01*
X911Y7094D01*
X890Y7068D01*
X878Y7038D01*
X874Y7005D01*
X878Y6972D01*
X890Y6942D01*
X911Y6916D01*
X937Y6895D01*
X961Y6886D01*
Y6872D01*
X937Y6862D01*
X911Y6842D01*
X890Y6816D01*
X878Y6785D01*
X874Y6753D01*
X878Y6720D01*
X888Y6696D01*
X877Y6688D01*
X776Y6789D01*
Y7341D01*
X909Y7474D01*
X1781D01*
X2327Y6927D01*
X2327Y6927D01*
X2342Y6917D01*
X2360Y6914D01*
X2360Y6914D01*
X2751D01*
X3449Y6215D01*
Y6171D01*
X3436Y6167D01*
X3413Y6185D01*
X3383Y6197D01*
X3350Y6201D01*
X3317Y6197D01*
X3287Y6185D01*
X3261Y6164D01*
X3240Y6138D01*
X3228Y6108D01*
X3224Y6075D01*
X3228Y6042D01*
X3240Y6012D01*
X3261Y5986D01*
X3287Y5965D01*
X3307Y5957D01*
Y5943D01*
X3287Y5935D01*
X3261Y5914D01*
X3240Y5888D01*
X3228Y5858D01*
X3224Y5825D01*
X3228Y5792D01*
X3240Y5762D01*
X3261Y5736D01*
X3287Y5715D01*
X3317Y5703D01*
X3350Y5699D01*
X3383Y5703D01*
X3413Y5715D01*
X3439Y5736D01*
X3460Y5762D01*
X3472Y5792D01*
X3476Y5825D01*
X3472Y5858D01*
X3465Y5875D01*
X3528Y5938D01*
X3528Y5938D01*
X3538Y5953D01*
X3542Y5970D01*
X3542Y5970D01*
Y6235D01*
X3542Y6235D01*
X3538Y6252D01*
X3528Y6267D01*
X3528Y6267D01*
X2803Y6993D01*
X2788Y7003D01*
X2770Y7006D01*
X2770Y7006D01*
X2379D01*
X1833Y7553D01*
X1818Y7563D01*
X1800Y7566D01*
X1800Y7566D01*
X1549D01*
X1542Y7579D01*
X1545Y7584D01*
X2080D01*
X2080Y7584D01*
X2098Y7587D01*
X2113Y7597D01*
X2250Y7735D01*
X2267Y7728D01*
X2300Y7724D01*
X2333Y7728D01*
X2363Y7740D01*
X2389Y7761D01*
X2410Y7787D01*
X2418Y7807D01*
X2432D01*
X2440Y7787D01*
X2461Y7761D01*
X2487Y7740D01*
X2517Y7728D01*
X2550Y7724D01*
X2583Y7728D01*
X2613Y7740D01*
X2639Y7761D01*
X2660Y7787D01*
X2668Y7807D01*
X2682D01*
X2690Y7787D01*
X2711Y7761D01*
X2737Y7740D01*
X2767Y7728D01*
X2800Y7724D01*
X2833Y7728D01*
X2863Y7740D01*
X2889Y7761D01*
X2910Y7787D01*
X2922Y7817D01*
X2926Y7850D01*
X2922Y7883D01*
X2910Y7913D01*
X2889Y7939D01*
X2863Y7960D01*
X2833Y7972D01*
X2800Y7976D01*
D02*
G37*
G36*
X2550Y6900D02*
X2527Y6897D01*
X2505Y6888D01*
X2487Y6873D01*
X2472Y6855D01*
X2463Y6833D01*
X2460Y6810D01*
X2463Y6787D01*
X2472Y6765D01*
X2487Y6747D01*
X2504Y6733D01*
Y6545D01*
X2504Y6545D01*
X2506Y6536D01*
X2497Y6525D01*
X2488Y6503D01*
X2485Y6480D01*
X2488Y6457D01*
X2497Y6435D01*
X2512Y6417D01*
X2530Y6402D01*
X2552Y6393D01*
X2575Y6390D01*
X2598Y6393D01*
X2620Y6402D01*
X2638Y6417D01*
X2653Y6435D01*
X2662Y6457D01*
X2665Y6480D01*
X2662Y6503D01*
X2653Y6525D01*
X2638Y6543D01*
X2620Y6558D01*
X2598Y6567D01*
X2596Y6567D01*
Y6733D01*
X2613Y6747D01*
X2628Y6765D01*
X2637Y6787D01*
X2640Y6810D01*
X2637Y6833D01*
X2628Y6855D01*
X2613Y6873D01*
X2595Y6888D01*
X2573Y6897D01*
X2550Y6900D01*
D02*
G37*
G36*
X891Y4259D02*
X661D01*
Y4029D01*
X891D01*
Y4259D01*
D02*
G37*
G36*
X2300Y4260D02*
X2270Y4256D01*
X2242Y4245D01*
X2218Y4226D01*
X2199Y4202D01*
X2188Y4174D01*
X2184Y4144D01*
X2188Y4114D01*
X2199Y4086D01*
X2218Y4062D01*
X2242Y4043D01*
X2270Y4032D01*
X2300Y4028D01*
X2330Y4032D01*
X2358Y4043D01*
X2382Y4062D01*
X2401Y4086D01*
X2412Y4114D01*
X2416Y4144D01*
X2412Y4174D01*
X2401Y4202D01*
X2382Y4226D01*
X2358Y4245D01*
X2330Y4256D01*
X2300Y4260D01*
D02*
G37*
G36*
Y4006D02*
X2270Y4002D01*
X2242Y3991D01*
X2218Y3972D01*
X2199Y3948D01*
X2188Y3920D01*
X2184Y3890D01*
X2188Y3860D01*
X2199Y3832D01*
X2218Y3808D01*
X2242Y3789D01*
X2270Y3778D01*
X2300Y3774D01*
X2330Y3778D01*
X2358Y3789D01*
X2382Y3808D01*
X2401Y3832D01*
X2406Y3844D01*
X2793D01*
X2807Y3827D01*
X2825Y3812D01*
X2847Y3803D01*
X2870Y3800D01*
X2893Y3803D01*
X2915Y3812D01*
X2933Y3827D01*
X2948Y3845D01*
X2957Y3867D01*
X2960Y3890D01*
X2957Y3913D01*
X2948Y3935D01*
X2933Y3953D01*
X2915Y3968D01*
X2893Y3977D01*
X2870Y3980D01*
X2847Y3977D01*
X2825Y3968D01*
X2807Y3953D01*
X2793Y3936D01*
X2406D01*
X2401Y3948D01*
X2382Y3972D01*
X2358Y3991D01*
X2330Y4002D01*
X2300Y4006D01*
D02*
G37*
G36*
X776D02*
X746Y4002D01*
X718Y3991D01*
X694Y3972D01*
X675Y3948D01*
X664Y3920D01*
X660Y3890D01*
X664Y3860D01*
X675Y3832D01*
X694Y3808D01*
X718Y3789D01*
X746Y3778D01*
X776Y3774D01*
X806Y3778D01*
X834Y3789D01*
X858Y3808D01*
X877Y3832D01*
X888Y3860D01*
X892Y3890D01*
X888Y3920D01*
X877Y3948D01*
X858Y3972D01*
X834Y3991D01*
X806Y4002D01*
X776Y4006D01*
D02*
G37*
G36*
X2300Y3752D02*
X2270Y3748D01*
X2242Y3737D01*
X2218Y3718D01*
X2199Y3694D01*
X2188Y3666D01*
X2184Y3636D01*
X2188Y3606D01*
X2199Y3578D01*
X2218Y3554D01*
X2242Y3535D01*
X2270Y3524D01*
X2300Y3520D01*
X2330Y3524D01*
X2358Y3535D01*
X2382Y3554D01*
X2401Y3578D01*
X2412Y3606D01*
X2416Y3636D01*
X2412Y3666D01*
X2401Y3694D01*
X2382Y3718D01*
X2358Y3737D01*
X2330Y3748D01*
X2300Y3752D01*
D02*
G37*
G36*
X776D02*
X746Y3748D01*
X718Y3737D01*
X694Y3718D01*
X675Y3694D01*
X664Y3666D01*
X660Y3636D01*
X664Y3606D01*
X675Y3578D01*
X694Y3554D01*
X718Y3535D01*
X746Y3524D01*
X776Y3520D01*
X806Y3524D01*
X834Y3535D01*
X858Y3554D01*
X877Y3578D01*
X888Y3606D01*
X892Y3636D01*
X888Y3666D01*
X877Y3694D01*
X858Y3718D01*
X834Y3737D01*
X806Y3748D01*
X776Y3752D01*
D02*
G37*
G36*
X2300Y3498D02*
X2270Y3494D01*
X2242Y3483D01*
X2218Y3464D01*
X2199Y3440D01*
X2188Y3412D01*
X2184Y3382D01*
X2188Y3352D01*
X2199Y3324D01*
X2218Y3300D01*
X2242Y3281D01*
X2270Y3270D01*
X2300Y3266D01*
X2330Y3270D01*
X2358Y3281D01*
X2382Y3300D01*
X2401Y3324D01*
X2412Y3352D01*
X2416Y3382D01*
X2412Y3412D01*
X2401Y3440D01*
X2382Y3464D01*
X2358Y3483D01*
X2330Y3494D01*
X2300Y3498D01*
D02*
G37*
G36*
X776D02*
X746Y3494D01*
X718Y3483D01*
X694Y3464D01*
X675Y3440D01*
X664Y3412D01*
X660Y3382D01*
X664Y3352D01*
X675Y3324D01*
X694Y3300D01*
X718Y3281D01*
X746Y3270D01*
X776Y3266D01*
X806Y3270D01*
X834Y3281D01*
X858Y3300D01*
X877Y3324D01*
X888Y3352D01*
X892Y3382D01*
X888Y3412D01*
X877Y3440D01*
X858Y3464D01*
X834Y3483D01*
X806Y3494D01*
X776Y3498D01*
D02*
G37*
G36*
X2300Y3244D02*
X2270Y3240D01*
X2242Y3229D01*
X2218Y3210D01*
X2199Y3186D01*
X2188Y3158D01*
X2184Y3128D01*
X2188Y3098D01*
X2199Y3070D01*
X2218Y3046D01*
X2242Y3027D01*
X2270Y3016D01*
X2300Y3012D01*
X2330Y3016D01*
X2358Y3027D01*
X2382Y3046D01*
X2401Y3070D01*
X2412Y3098D01*
X2416Y3128D01*
X2412Y3158D01*
X2401Y3186D01*
X2382Y3210D01*
X2358Y3229D01*
X2330Y3240D01*
X2300Y3244D01*
D02*
G37*
G36*
X776D02*
X746Y3240D01*
X718Y3229D01*
X694Y3210D01*
X675Y3186D01*
X664Y3158D01*
X660Y3128D01*
X664Y3098D01*
X675Y3070D01*
X694Y3046D01*
X718Y3027D01*
X746Y3016D01*
X776Y3012D01*
X806Y3016D01*
X834Y3027D01*
X858Y3046D01*
X877Y3070D01*
X888Y3098D01*
X892Y3128D01*
X888Y3158D01*
X877Y3186D01*
X858Y3210D01*
X834Y3229D01*
X806Y3240D01*
X776Y3244D01*
D02*
G37*
G36*
X2300Y2990D02*
X2270Y2986D01*
X2242Y2975D01*
X2218Y2956D01*
X2199Y2932D01*
X2188Y2904D01*
X2184Y2874D01*
X2188Y2844D01*
X2199Y2816D01*
X2218Y2792D01*
X2242Y2773D01*
X2270Y2762D01*
X2300Y2758D01*
X2330Y2762D01*
X2358Y2773D01*
X2382Y2792D01*
X2401Y2816D01*
X2412Y2844D01*
X2416Y2874D01*
X2412Y2904D01*
X2401Y2932D01*
X2382Y2956D01*
X2358Y2975D01*
X2330Y2986D01*
X2300Y2990D01*
D02*
G37*
G36*
X776D02*
X746Y2986D01*
X718Y2975D01*
X694Y2956D01*
X675Y2932D01*
X664Y2904D01*
X660Y2874D01*
X664Y2844D01*
X675Y2816D01*
X694Y2792D01*
X718Y2773D01*
X746Y2762D01*
X776Y2758D01*
X806Y2762D01*
X834Y2773D01*
X858Y2792D01*
X877Y2816D01*
X888Y2844D01*
X892Y2874D01*
X888Y2904D01*
X877Y2932D01*
X858Y2956D01*
X834Y2975D01*
X806Y2986D01*
X776Y2990D01*
D02*
G37*
G36*
X2300Y2736D02*
X2270Y2732D01*
X2242Y2721D01*
X2218Y2702D01*
X2199Y2678D01*
X2188Y2650D01*
X2184Y2620D01*
X2188Y2590D01*
X2199Y2562D01*
X2218Y2538D01*
X2242Y2519D01*
X2270Y2508D01*
X2300Y2504D01*
X2330Y2508D01*
X2358Y2519D01*
X2382Y2538D01*
X2401Y2562D01*
X2412Y2590D01*
X2416Y2620D01*
X2412Y2650D01*
X2401Y2678D01*
X2382Y2702D01*
X2358Y2721D01*
X2330Y2732D01*
X2300Y2736D01*
D02*
G37*
G36*
X776D02*
X746Y2732D01*
X718Y2721D01*
X694Y2702D01*
X675Y2678D01*
X664Y2650D01*
X660Y2620D01*
X664Y2590D01*
X675Y2562D01*
X694Y2538D01*
X718Y2519D01*
X746Y2508D01*
X776Y2504D01*
X806Y2508D01*
X834Y2519D01*
X858Y2538D01*
X877Y2562D01*
X888Y2590D01*
X892Y2620D01*
X888Y2650D01*
X877Y2678D01*
X858Y2702D01*
X834Y2721D01*
X806Y2732D01*
X776Y2736D01*
D02*
G37*
G36*
X2300Y2482D02*
X2270Y2478D01*
X2242Y2467D01*
X2218Y2448D01*
X2199Y2424D01*
X2188Y2396D01*
X2184Y2366D01*
X2188Y2336D01*
X2199Y2308D01*
X2218Y2284D01*
X2242Y2265D01*
X2270Y2254D01*
X2300Y2250D01*
X2330Y2254D01*
X2358Y2265D01*
X2382Y2284D01*
X2401Y2308D01*
X2412Y2336D01*
X2416Y2366D01*
X2412Y2396D01*
X2401Y2424D01*
X2382Y2448D01*
X2358Y2467D01*
X2330Y2478D01*
X2300Y2482D01*
D02*
G37*
G36*
X776D02*
X746Y2478D01*
X718Y2467D01*
X694Y2448D01*
X675Y2424D01*
X664Y2396D01*
X660Y2366D01*
X664Y2336D01*
X675Y2308D01*
X694Y2284D01*
X718Y2265D01*
X746Y2254D01*
X776Y2250D01*
X806Y2254D01*
X834Y2265D01*
X858Y2284D01*
X877Y2308D01*
X888Y2336D01*
X892Y2366D01*
X888Y2396D01*
X877Y2424D01*
X858Y2448D01*
X834Y2467D01*
X806Y2478D01*
X776Y2482D01*
D02*
G37*
G36*
Y2228D02*
X746Y2224D01*
X718Y2213D01*
X694Y2194D01*
X675Y2170D01*
X664Y2142D01*
X660Y2112D01*
X664Y2082D01*
X675Y2054D01*
X694Y2030D01*
X718Y2011D01*
X746Y2000D01*
X776Y1996D01*
X806Y2000D01*
X834Y2011D01*
X858Y2030D01*
X877Y2054D01*
X888Y2082D01*
X892Y2112D01*
X888Y2142D01*
X877Y2170D01*
X858Y2194D01*
X834Y2213D01*
X806Y2224D01*
X776Y2228D01*
D02*
G37*
G36*
X3100Y2415D02*
X3077Y2412D01*
X3055Y2403D01*
X3037Y2388D01*
X3022Y2370D01*
X3013Y2348D01*
X3010Y2325D01*
X3013Y2302D01*
X3022Y2280D01*
X3037Y2262D01*
X3054Y2248D01*
Y2175D01*
X3054Y2175D01*
X3057Y2157D01*
X3067Y2142D01*
X3235Y1975D01*
X3228Y1958D01*
X3224Y1925D01*
X3228Y1892D01*
X3240Y1862D01*
X3261Y1836D01*
X3287Y1815D01*
X3317Y1803D01*
X3350Y1799D01*
X3383Y1803D01*
X3413Y1815D01*
X3439Y1836D01*
X3460Y1862D01*
X3472Y1892D01*
X3476Y1925D01*
X3472Y1958D01*
X3460Y1988D01*
X3439Y2014D01*
X3413Y2035D01*
X3393Y2043D01*
Y2057D01*
X3413Y2065D01*
X3439Y2086D01*
X3460Y2112D01*
X3472Y2142D01*
X3476Y2175D01*
X3472Y2208D01*
X3460Y2238D01*
X3439Y2264D01*
X3413Y2285D01*
X3383Y2297D01*
X3350Y2301D01*
X3317Y2297D01*
X3287Y2285D01*
X3261Y2264D01*
X3240Y2238D01*
X3228Y2208D01*
X3224Y2175D01*
X3228Y2142D01*
X3236Y2122D01*
X3225Y2115D01*
X3146Y2194D01*
Y2248D01*
X3163Y2262D01*
X3178Y2280D01*
X3187Y2302D01*
X3190Y2325D01*
X3187Y2348D01*
X3178Y2370D01*
X3163Y2388D01*
X3145Y2403D01*
X3123Y2412D01*
X3100Y2415D01*
D02*
G37*
G36*
X776Y1974D02*
X746Y1970D01*
X718Y1959D01*
X694Y1940D01*
X675Y1916D01*
X664Y1888D01*
X660Y1858D01*
X664Y1828D01*
X675Y1800D01*
X694Y1776D01*
X718Y1757D01*
X746Y1746D01*
X776Y1742D01*
X806Y1746D01*
X834Y1757D01*
X858Y1776D01*
X877Y1800D01*
X888Y1828D01*
X892Y1858D01*
X888Y1888D01*
X877Y1916D01*
X858Y1940D01*
X834Y1959D01*
X806Y1970D01*
X776Y1974D01*
D02*
G37*
G36*
X2300Y1720D02*
X2270Y1716D01*
X2242Y1705D01*
X2218Y1686D01*
X2199Y1662D01*
X2188Y1634D01*
X2184Y1604D01*
X2188Y1574D01*
X2199Y1546D01*
X2218Y1522D01*
X2242Y1503D01*
X2270Y1492D01*
X2300Y1488D01*
X2330Y1492D01*
X2358Y1503D01*
X2382Y1522D01*
X2401Y1546D01*
X2412Y1574D01*
X2416Y1604D01*
X2412Y1634D01*
X2401Y1662D01*
X2382Y1686D01*
X2358Y1705D01*
X2330Y1716D01*
X2300Y1720D01*
D02*
G37*
G36*
X776D02*
X746Y1716D01*
X718Y1705D01*
X694Y1686D01*
X675Y1662D01*
X664Y1634D01*
X660Y1604D01*
X664Y1574D01*
X675Y1546D01*
X694Y1522D01*
X718Y1503D01*
X746Y1492D01*
X776Y1488D01*
X806Y1492D01*
X834Y1503D01*
X858Y1522D01*
X877Y1546D01*
X888Y1574D01*
X892Y1604D01*
X888Y1634D01*
X877Y1662D01*
X858Y1686D01*
X834Y1705D01*
X806Y1716D01*
X776Y1720D01*
D02*
G37*
G36*
X2300Y1466D02*
X2270Y1462D01*
X2242Y1451D01*
X2218Y1432D01*
X2199Y1408D01*
X2188Y1380D01*
X2184Y1350D01*
X2188Y1320D01*
X2199Y1292D01*
X2218Y1268D01*
X2242Y1249D01*
X2270Y1238D01*
X2300Y1234D01*
X2330Y1238D01*
X2358Y1249D01*
X2382Y1268D01*
X2401Y1292D01*
X2412Y1320D01*
X2416Y1350D01*
X2412Y1380D01*
X2401Y1408D01*
X2382Y1432D01*
X2358Y1451D01*
X2330Y1462D01*
X2300Y1466D01*
D02*
G37*
G36*
X776D02*
X746Y1462D01*
X718Y1451D01*
X694Y1432D01*
X675Y1408D01*
X664Y1380D01*
X660Y1350D01*
X664Y1320D01*
X675Y1292D01*
X694Y1268D01*
X718Y1249D01*
X746Y1238D01*
X776Y1234D01*
X806Y1238D01*
X834Y1249D01*
X858Y1268D01*
X877Y1292D01*
X888Y1320D01*
X892Y1350D01*
X888Y1380D01*
X877Y1408D01*
X858Y1432D01*
X834Y1451D01*
X806Y1462D01*
X776Y1466D01*
D02*
G37*
G36*
X2300Y1212D02*
X2270Y1208D01*
X2242Y1197D01*
X2218Y1178D01*
X2199Y1154D01*
X2188Y1126D01*
X2184Y1096D01*
X2188Y1066D01*
X2199Y1038D01*
X2218Y1014D01*
X2242Y995D01*
X2270Y984D01*
X2300Y980D01*
X2330Y984D01*
X2358Y995D01*
X2382Y1014D01*
X2401Y1038D01*
X2412Y1066D01*
X2416Y1096D01*
X2412Y1126D01*
X2401Y1154D01*
X2382Y1178D01*
X2358Y1197D01*
X2330Y1208D01*
X2300Y1212D01*
D02*
G37*
G36*
X776D02*
X746Y1208D01*
X718Y1197D01*
X694Y1178D01*
X675Y1154D01*
X664Y1126D01*
X660Y1096D01*
X664Y1066D01*
X675Y1038D01*
X694Y1014D01*
X718Y995D01*
X746Y984D01*
X776Y980D01*
X806Y984D01*
X834Y995D01*
X858Y1014D01*
X877Y1038D01*
X888Y1066D01*
X892Y1096D01*
X888Y1126D01*
X877Y1154D01*
X858Y1178D01*
X834Y1197D01*
X806Y1208D01*
X776Y1212D01*
D02*
G37*
G36*
X2300Y958D02*
X2270Y954D01*
X2242Y943D01*
X2218Y924D01*
X2199Y900D01*
X2188Y872D01*
X2184Y842D01*
X2188Y812D01*
X2199Y784D01*
X2218Y760D01*
X2242Y741D01*
X2270Y730D01*
X2300Y726D01*
X2330Y730D01*
X2358Y741D01*
X2382Y760D01*
X2401Y784D01*
X2412Y812D01*
X2416Y842D01*
X2412Y872D01*
X2401Y900D01*
X2382Y924D01*
X2358Y943D01*
X2330Y954D01*
X2300Y958D01*
D02*
G37*
G36*
X776D02*
X746Y954D01*
X718Y943D01*
X694Y924D01*
X675Y900D01*
X664Y872D01*
X660Y842D01*
X664Y812D01*
X675Y784D01*
X694Y760D01*
X718Y741D01*
X746Y730D01*
X776Y726D01*
X806Y730D01*
X834Y741D01*
X858Y760D01*
X877Y784D01*
X888Y812D01*
X892Y842D01*
X888Y872D01*
X877Y900D01*
X858Y924D01*
X834Y943D01*
X806Y954D01*
X776Y958D01*
D02*
G37*
G36*
X2300Y704D02*
X2270Y700D01*
X2242Y689D01*
X2218Y670D01*
X2199Y646D01*
X2188Y618D01*
X2184Y588D01*
X2188Y558D01*
X2199Y530D01*
X2218Y506D01*
X2242Y487D01*
X2270Y476D01*
X2300Y472D01*
X2330Y476D01*
X2358Y487D01*
X2382Y506D01*
X2401Y530D01*
X2412Y558D01*
X2416Y588D01*
X2412Y618D01*
X2401Y646D01*
X2382Y670D01*
X2358Y689D01*
X2330Y700D01*
X2300Y704D01*
D02*
G37*
G36*
X776D02*
X746Y700D01*
X718Y689D01*
X694Y670D01*
X675Y646D01*
X664Y618D01*
X660Y588D01*
X664Y558D01*
X675Y530D01*
X694Y506D01*
X718Y487D01*
X746Y476D01*
X776Y472D01*
X806Y476D01*
X834Y487D01*
X858Y506D01*
X877Y530D01*
X888Y558D01*
X892Y588D01*
X888Y618D01*
X877Y646D01*
X858Y670D01*
X834Y689D01*
X806Y700D01*
X776Y704D01*
D02*
G37*
%LPD*%
D12*
X2575Y6510D02*
X2590Y6495D01*
X2550Y6545D02*
Y6810D01*
Y6545D02*
X2580Y6515D01*
X2575Y6510D02*
X2580Y6515D01*
X2575Y6480D02*
X2590Y6495D01*
X2575Y6480D02*
X2598Y6457D01*
X1466Y2692D02*
Y5024D01*
X1000Y5490D02*
X1466Y5024D01*
X2080Y7630D02*
X2300Y7850D01*
X1460Y7630D02*
X2080D01*
X1727Y2685D02*
Y5015D01*
X1000Y5743D02*
X1727Y5015D01*
X2360Y6960D02*
X2770D01*
X3495Y6235D01*
X1800Y7520D02*
X2360Y6960D01*
X890Y7520D02*
X1800D01*
X730Y7360D02*
X890Y7520D01*
X3495Y5970D02*
Y6235D01*
X2302Y3892D02*
X2305Y3890D01*
X2373Y5505D02*
Y5955D01*
X1320Y6120D02*
X2070Y5370D01*
X2850D01*
X1000Y6753D02*
X1320Y6433D01*
Y6120D02*
Y6433D01*
X2305Y3890D02*
X2870D01*
X3350Y5825D02*
X3495Y5970D01*
X730Y6770D02*
Y7360D01*
Y6770D02*
X1000Y6500D01*
X3080Y3495D02*
Y3620D01*
Y3495D02*
X3350Y3225D01*
X3100Y2175D02*
X3350Y1925D01*
X3100Y2175D02*
Y2325D01*
X1466Y2692D02*
X2300Y1858D01*
X1727Y2685D02*
X2300Y2112D01*
X3350Y3225D02*
X3498Y3373D01*
Y5159D01*
X1651Y7005D02*
X3498Y5159D01*
X1000Y7005D02*
X1651D01*
D20*
X2550Y7850D02*
D03*
X2050D02*
D03*
X2300D02*
D03*
X2800D02*
D03*
X3350Y4500D02*
D03*
Y4750D02*
D03*
Y3225D02*
D03*
Y3475D02*
D03*
Y1925D02*
D03*
Y2175D02*
D03*
Y5825D02*
D03*
Y6075D02*
D03*
X1000Y7005D02*
D03*
Y7258D02*
D03*
Y5995D02*
D03*
Y6248D02*
D03*
Y6753D02*
D03*
Y6500D02*
D03*
Y5490D02*
D03*
Y5743D02*
D03*
Y5238D02*
D03*
Y4985D02*
D03*
D21*
X776Y588D02*
D03*
Y1096D02*
D03*
Y842D02*
D03*
Y1604D02*
D03*
Y1350D02*
D03*
Y2112D02*
D03*
Y1858D02*
D03*
Y2620D02*
D03*
Y2366D02*
D03*
Y3128D02*
D03*
Y2874D02*
D03*
Y3382D02*
D03*
Y3636D02*
D03*
Y3890D02*
D03*
X2300Y588D02*
D03*
Y842D02*
D03*
Y1096D02*
D03*
Y1350D02*
D03*
Y1604D02*
D03*
Y1858D02*
D03*
Y2112D02*
D03*
Y2366D02*
D03*
Y2620D02*
D03*
Y2874D02*
D03*
Y3128D02*
D03*
Y3382D02*
D03*
Y3636D02*
D03*
Y3890D02*
D03*
Y4144D02*
D03*
D22*
X776D02*
D03*
D23*
X2550Y6810D02*
D03*
X2575Y6480D02*
D03*
X1460Y7630D02*
D03*
Y5020D02*
D03*
X1720Y5010D02*
D03*
X2373Y5505D02*
D03*
Y5955D02*
D03*
X2850Y5370D02*
D03*
X2870Y3890D02*
D03*
X3080Y3620D02*
D03*
X3100Y2325D02*
D03*
D24*
X3350Y250D02*
D03*
X250Y7750D02*
D03*
X3350D02*
D03*
X250Y250D02*
D03*
M02*
