%FSTAX23Y23*%
%MOIN*%
%SFA1B1*%

%IPPOS*%
%ADD10C,0.007874*%
%ADD11C,0.009843*%
%ADD12C,0.015748*%
%LNchillerlcd-1*%
%LPD*%
G54D10*
X01061Y00667D02*
X01085D01*
X01061Y0073D02*
X01085D01*
X01061Y00838D02*
X01084D01*
X01061Y00775D02*
X01084D01*
X01061Y00946D02*
X01084D01*
X01061Y00883D02*
X01084D01*
X01061Y01179D02*
X01084D01*
X01061Y01242D02*
X01084D01*
X01061Y0135D02*
X01084D01*
X01061Y01287D02*
X01084D01*
X01061Y01458D02*
X01084D01*
X01061Y01395D02*
X01084D01*
X01061Y01681D02*
X01084D01*
X01061Y01744D02*
X01084D01*
X01061Y01852D02*
X01084D01*
X01061Y01789D02*
X01084D01*
X0106Y0196D02*
X01083D01*
X0106Y01897D02*
X01083D01*
X01059Y02216D02*
X01082D01*
X01059Y02279D02*
X01082D01*
X01059Y02377D02*
X01082D01*
X01059Y02314D02*
X01082D01*
X01059Y02476D02*
X01082D01*
X01059Y02413D02*
X01082D01*
G54D11*
X01217Y01675D02*
X01318D01*
X01251Y01966D02*
X01318D01*
X01318Y01675D02*
X01411D01*
X01318Y01966D02*
X0141D01*
X01411Y01675D02*
Y01965D01*
X01185Y01675D02*
X01217D01*
X01185D02*
Y01966D01*
X01251*
X01217Y01173D02*
X01318D01*
X01251Y01464D02*
X01318D01*
X01318Y01173D02*
X01411D01*
X01318Y01464D02*
X0141D01*
X01411Y01173D02*
Y01463D01*
X01185Y01173D02*
X01217D01*
X01185D02*
Y01464D01*
X01251*
X01217Y00661D02*
X01318D01*
X01251Y00952D02*
X01318D01*
X01318Y00661D02*
X01411D01*
X01318Y00952D02*
X0141D01*
X01411Y00661D02*
Y00951D01*
X01185Y00661D02*
X01217D01*
X01185D02*
Y00952D01*
X01251*
X01217Y02196D02*
X01318D01*
X01251Y02488D02*
X01318D01*
X01318Y02196D02*
X01411D01*
X01318Y02488D02*
X0141D01*
X01411Y02196D02*
Y02487D01*
X01185Y02196D02*
X01217D01*
X01185D02*
Y02488D01*
X01251*
X00251Y0001D02*
Y01781D01*
Y0001D02*
X00959D01*
Y01781*
X00251D02*
X00959D01*
X00338Y01907D02*
X00393D01*
X00338D02*
Y01962D01*
Y02912D02*
X00393D01*
X00338Y02857D02*
Y02912D01*
Y01962D02*
Y02857D01*
X00393Y01907D02*
X007D01*
X00393Y02912D02*
X007D01*
Y01907D02*
Y02912D01*
X00827Y02991D02*
X00837Y03001D01*
Y03021*
X00827Y03031*
X00817*
X00807Y03021*
Y03001*
X00797Y02991*
X00787*
X00777Y03001*
Y03021*
X00787Y03031*
X00837Y02971D02*
X00777D01*
Y02931*
X00827Y02871D02*
X00837Y02881D01*
Y02901*
X00827Y02911*
X00787*
X00777Y02901*
Y02881*
X00787Y02871*
X00925Y02991D02*
X00935Y03001D01*
Y03021*
X00925Y03031*
X00916*
X00905Y03021*
Y03001*
X00896Y02991*
X00885*
X00875Y03001*
Y03021*
X00885Y03031*
X00935Y02971D02*
X00875D01*
Y02941*
X00885Y02931*
X00925*
X00935Y02941*
Y02971*
X00875Y02911D02*
X00916D01*
X00935Y02891*
X00916Y02871*
X00875*
X00905*
Y02911*
X01034Y03031D02*
X00994D01*
X00974Y03011*
X00994Y02991*
X01034*
X01024Y02931D02*
X01034Y02941D01*
Y02961*
X01024Y02971*
X00984*
X00974Y02961*
Y02941*
X00984Y02931*
X01024Y02871D02*
X01034Y02881D01*
Y02901*
X01024Y02911*
X00984*
X00974Y02901*
Y02881*
X00984Y02871*
X01122Y02991D02*
X01132Y03001D01*
Y03021*
X01122Y03031*
X01082*
X01072Y03021*
Y03001*
X01082Y02991*
X01102*
Y03011*
X01072Y02971D02*
X01132D01*
X01072Y02931*
X01132*
Y02911D02*
X01072D01*
Y02881*
X01082Y02871*
X01122*
X01132Y02881*
Y02911*
X01214Y02028D02*
X01234D01*
X01244Y02018*
Y01988*
X01214*
X01204Y01998*
X01214Y02008*
X01244*
X01304Y02048D02*
Y01988D01*
X01274*
X01264Y01998*
Y02018*
X01274Y02028*
X01304*
X01364D02*
X01334D01*
X01324Y02018*
Y01998*
X01334Y01988*
X01364*
X01384D02*
X01404D01*
X01394*
Y02048*
X01384Y02038*
X01194Y0255D02*
X01214D01*
X01225Y02539*
Y02509*
X01194*
X01185Y02519*
X01194Y02529*
X01225*
X01285Y02569D02*
Y02509D01*
X01255*
X01244Y02519*
Y02539*
X01255Y0255*
X01285*
X01344D02*
X01314D01*
X01305Y02539*
Y02519*
X01314Y02509*
X01344*
X01364Y02559D02*
X01374Y02569D01*
X01394*
X01405Y02559*
Y02519*
X01394Y02509*
X01374*
X01364Y02519*
Y02559*
X01194Y01012D02*
X01214D01*
X01225Y01002*
Y00972*
X01194*
X01185Y00982*
X01194Y00992*
X01225*
X01285Y01032D02*
Y00972D01*
X01255*
X01244Y00982*
Y01002*
X01255Y01012*
X01285*
X01344D02*
X01314D01*
X01305Y01002*
Y00982*
X01314Y00972*
X01344*
X01364Y01022D02*
X01374Y01032D01*
X01394*
X01405Y01022*
Y01012*
X01394Y01002*
X01385*
X01394*
X01405Y00992*
Y00982*
X01394Y00972*
X01374*
X01364Y00982*
X01194Y01524D02*
X01214D01*
X01225Y01514*
Y01484*
X01194*
X01185Y01494*
X01194Y01504*
X01225*
X01285Y01544D02*
Y01484D01*
X01255*
X01244Y01494*
Y01514*
X01255Y01524*
X01285*
X01344D02*
X01314D01*
X01305Y01514*
Y01494*
X01314Y01484*
X01344*
X01405D02*
X01364D01*
X01405Y01524*
Y01534*
X01394Y01544*
X01374*
X01364Y01534*
X00269Y01814D02*
Y01846D01*
X00302*
Y01814*
X00269*
X01043Y01043D02*
X00983D01*
Y01073*
X00993Y01083*
X01013*
X01023Y01073*
Y01043*
Y01063D02*
X01043Y01083D01*
X00983Y01103D02*
Y01143D01*
X00993*
X01033Y01103*
X01043*
X01203Y00472D02*
X01143D01*
Y00502*
X01153Y00512*
X01173*
X01183Y00502*
Y00472*
Y00492D02*
X01203Y00512D01*
Y00532D02*
Y00552D01*
Y00542*
X01143*
X01153Y00532*
X01203Y00622D02*
Y00582D01*
X01163Y00622*
X01153*
X01143Y00612*
Y00592*
X01153Y00582*
X01125Y00472D02*
X01064D01*
Y00502*
X01075Y00512*
X01094*
X01105Y00502*
Y00472*
Y00492D02*
X01125Y00512D01*
Y00532D02*
Y00552D01*
Y00542*
X01064*
X01075Y00532*
X01125Y00582D02*
Y00602D01*
Y00592*
X01064*
X01075Y00582*
X01046Y00472D02*
X00986D01*
Y00502*
X00996Y00512*
X01016*
X01026Y00502*
Y00472*
Y00492D02*
X01046Y00512D01*
Y00532D02*
Y00552D01*
Y00542*
X00986*
X00996Y00532*
Y00582D02*
X00986Y00592D01*
Y00612*
X00996Y00622*
X01036*
X01046Y00612*
Y00592*
X01036Y00582*
X00996*
X012Y01043D02*
X0114D01*
Y01073*
X0115Y01083*
X0117*
X0118Y01073*
Y01043*
Y01063D02*
X012Y01083D01*
X0119Y01103D02*
X012Y01113D01*
Y01133*
X0119Y01143*
X0115*
X0114Y01133*
Y01113*
X0115Y01103*
X0116*
X0117Y01113*
Y01143*
X01122Y01043D02*
X01062D01*
Y01073*
X01072Y01083*
X01092*
X01101Y01073*
Y01043*
Y01063D02*
X01122Y01083D01*
X01072Y01103D02*
X01062Y01113D01*
Y01133*
X01072Y01143*
X01081*
X01092Y01133*
X01101Y01143*
X01112*
X01122Y01133*
Y01113*
X01112Y01103*
X01101*
X01092Y01113*
X01081Y01103*
X01072*
X01092Y01113D02*
Y01133D01*
X012Y01555D02*
X0114D01*
Y01585*
X0115Y01595*
X0117*
X0118Y01585*
Y01555*
Y01575D02*
X012Y01595D01*
X0114Y01655D02*
X0115Y01635D01*
X0117Y01614*
X0119*
X012Y01625*
Y01645*
X0119Y01655*
X0118*
X0117Y01645*
Y01614*
X01122Y01555D02*
X01062D01*
Y01585*
X01072Y01595*
X01092*
X01101Y01585*
Y01555*
Y01575D02*
X01122Y01595D01*
X01062Y01655D02*
Y01614D01*
X01092*
X01081Y01635*
Y01645*
X01092Y01655*
X01112*
X01122Y01645*
Y01625*
X01112Y01614*
X01043Y01555D02*
X00983D01*
Y01585*
X00993Y01595*
X01013*
X01023Y01585*
Y01555*
Y01575D02*
X01043Y01595D01*
Y01645D02*
X00983D01*
X01013Y01614*
Y01655*
X01204Y02066D02*
X01144D01*
Y02096*
X01154Y02107*
X01174*
X01184Y02096*
Y02066*
Y02087D02*
X01204Y02107D01*
X01154Y02126D02*
X01144Y02137D01*
Y02157*
X01154Y02166*
X01164*
X01174Y02157*
Y02146*
Y02157*
X01184Y02166*
X01194*
X01204Y02157*
Y02137*
X01194Y02126*
X01125Y02066D02*
X01066D01*
Y02096*
X01075Y02107*
X01096*
X01105Y02096*
Y02066*
Y02087D02*
X01125Y02107D01*
Y02166D02*
Y02126D01*
X01085Y02166*
X01075*
X01066Y02157*
Y02137*
X01075Y02126*
X01047Y02066D02*
X00987D01*
Y02096*
X00997Y02107*
X01017*
X01027Y02096*
Y02066*
Y02087D02*
X01047Y02107D01*
Y02126D02*
Y02146D01*
Y02137*
X00987*
X00997Y02126*
X00314Y01926D02*
X00274D01*
X00255Y01946*
X00274Y01966*
X00314*
X00285*
Y01926*
X00255Y01986D02*
X00314D01*
Y02016*
X00305Y02025*
X00264*
X00255Y02016*
Y01986*
X00264Y02086D02*
X00255Y02075D01*
Y02056*
X00264Y02046*
X00274*
X00285Y02056*
Y02075*
X00294Y02086*
X00305*
X00314Y02075*
Y02056*
X00305Y02046*
G54D12*
X00015Y02125D02*
X00133D01*
X00015Y02047*
X00133*
Y02007D02*
Y01929D01*
Y01968*
X00015*
X00133Y01889D02*
X00015D01*
X00055*
X00133Y01811*
X00074Y0187*
X00015Y01811*
Y01712D02*
X00133D01*
X00074Y01771*
Y01692*
X00015Y01653D02*
X00094Y01574D01*
X00015Y01535D02*
X00133D01*
X00094Y01496*
X00133Y01457*
X00015*
X00133Y01338D02*
Y01417D01*
X00015*
Y01338*
X00074Y01417D02*
Y01378D01*
X00114Y0122D02*
X00133Y0124D01*
Y01279*
X00114Y01299*
X00035*
X00015Y01279*
Y0124*
X00035Y0122*
X00133Y01181D02*
X00015D01*
X00074*
Y01102*
X00133*
X00015*
M02*