%FSTAX23Y23*%
%MOIN*%
%SFA1B1*%

%IPPOS*%
%ADD14R,0.070866X0.078740*%
%ADD15C,0.086614*%
%ADD16C,0.078740*%
%ADD17R,0.078740X0.078740*%
%ADD18C,0.057874*%
%ADD19C,0.185039*%
%LNchillerlcd-1*%
%LPD*%
G54D14*
X01128Y00698D03*
X01018D03*
X01017Y00807D03*
X01127D03*
X01017Y00915D03*
X01127D03*
Y0121D03*
X01017D03*
Y01318D03*
X01127D03*
X01017Y01427D03*
X01127D03*
Y01712D03*
X01017D03*
Y0182D03*
X01127D03*
X01016Y01929D03*
X01127D03*
X01125Y02248D03*
X01015D03*
Y02346D03*
X01125D03*
X01015Y02444D03*
X01125D03*
G54D15*
X01003Y0309D03*
X00807D03*
X00905D03*
X01102D03*
X01318Y01771D03*
Y0187D03*
Y01269D03*
Y01368D03*
Y00757D03*
Y00856D03*
Y02293D03*
Y02391D03*
X00393Y02757D03*
Y02857D03*
Y0236D03*
Y02459D03*
Y02658D03*
Y02559D03*
Y02161D03*
Y02261D03*
Y02062D03*
Y01962D03*
G54D16*
X00305Y00231D03*
Y00431D03*
Y00331D03*
Y00631D03*
Y00531D03*
Y00831D03*
Y00731D03*
Y01031D03*
Y00931D03*
Y01231D03*
Y01131D03*
Y01331D03*
Y01431D03*
Y01531D03*
X00905Y00231D03*
Y00331D03*
Y00431D03*
Y00531D03*
Y00631D03*
Y00731D03*
Y00831D03*
Y00931D03*
Y01031D03*
Y01131D03*
Y01231D03*
Y01331D03*
Y01431D03*
Y01531D03*
Y01631D03*
G54D17*
X00305Y01631D03*
G54D18*
X01003Y02681D03*
X01013Y02551D03*
X00574Y03003D03*
Y01976D03*
X00677Y01972D03*
X00934Y02167D03*
Y02344D03*
X01122Y02114D03*
X01129Y01531D03*
X01212Y01425D03*
X0122Y00915D03*
G54D19*
X01318Y00098D03*
X00098Y03051D03*
X01318D03*
X00098Y00098D03*
M02*